<svg width="20" height="20" viewBox="0 0 20 20" fill="none" xmlns="http://www.w3.org/2000/svg">
<rect width="20" height="20" fill="url(#paint0_linear_1405_16)"/>
<path d="M11.4 3C11.7713 3 12.1274 3.1475 12.3899 3.41005C12.6525 3.6726 12.8 4.0287 12.8 4.4" stroke="white" stroke-width="2" stroke-linecap="round" stroke-linejoin="round"/>
<path d="M7.19999 3H8.59999" stroke="white" stroke-width="2" stroke-linecap="round" stroke-linejoin="round"/>
<path d="M7.61005 16.5899C7.3475 16.3274 7.2 15.9713 7.2 15.6V7.2H15.6C15.9713 7.2 16.3274 7.3475 16.5899 7.61005C16.8525 7.8726 17 8.22869 17 8.6V15.6C17 15.9713 16.8525 16.3274 16.5899 16.5899C16.3274 16.8525 15.9713 17 15.6 17H8.6C8.22869 17 7.8726 16.8525 7.61005 16.5899Z" stroke="white" stroke-width="2" stroke-linecap="round" stroke-linejoin="round"/>
<path d="M4.4 12.8C4.0287 12.8 3.6726 12.6525 3.41005 12.3899C3.1475 12.1274 3 11.7713 3 11.4" stroke="white" stroke-width="2" stroke-linecap="round" stroke-linejoin="round"/>
<path d="M3 8.6V7.2" stroke="white" stroke-width="2" stroke-linecap="round" stroke-linejoin="round"/>
<path d="M3 4.4C3 4.0287 3.1475 3.6726 3.41005 3.41005C3.6726 3.1475 4.0287 3 4.4 3" stroke="white" stroke-width="2" stroke-linecap="round" stroke-linejoin="round"/>
<defs>
<linearGradient id="paint0_linear_1405_16" x1="-1.47768e-07" y1="20" x2="10.4799" y2="0.166866" gradientUnits="userSpaceOnUse">
<stop stop-color="#1F1F1F"/>
<stop offset="1" stop-color="#37383C"/>
</linearGradient>
</defs>
</svg>
